<svg width="360" height="800" viewBox="0 0 360 800" fill="none" xmlns="http://www.w3.org/2000/svg">
<g clip-path="url(#clip0_95_159)">
<rect width="360" height="800" fill="white"/>
<g filter="url(#filter0_f_95_159)">
<path fill-rule="evenodd" clip-rule="evenodd" d="M223.046 416.25C259.475 421.293 287.664 443.34 315.074 466.696C344.88 492.093 382.703 516.174 384.9 554.163C387.154 593.141 350.77 620.823 325.781 651.804C294.295 690.839 273.938 745.899 223.046 754.824C167.993 764.479 102.834 741.494 73.8202 695.99C46.7492 653.534 90.1744 603.585 95.0988 554.163C99.1332 513.673 71.3369 467.379 99.6383 436.873C128.354 405.92 180.08 410.302 223.046 416.25Z" fill="#9D4EDD"/>
</g>
<g filter="url(#filter1_f_95_159)">
<path fill-rule="evenodd" clip-rule="evenodd" d="M296.046 -75.7501C332.475 -70.707 360.664 -48.6597 388.074 -25.3035C417.88 0.0932922 455.703 24.1743 457.9 62.1626C460.154 101.141 423.77 128.823 398.781 159.804C367.295 198.839 346.938 253.899 296.046 262.824C240.993 272.479 175.834 249.494 146.82 203.99C119.749 161.534 163.174 111.585 168.099 62.1626C172.133 21.6729 144.337 -24.6211 172.638 -55.1269C201.354 -86.0797 253.08 -81.698 296.046 -75.7501Z" fill="#9D4EDD" fill-opacity="0.57"/>
</g>
<g filter="url(#filter2_f_95_159)">
<path fill-rule="evenodd" clip-rule="evenodd" d="M118.687 303.601C147.271 307.458 170.09 323.294 193.413 340.263C223.754 362.339 268.302 377.628 271.778 414.989C275.306 452.916 236.031 478.468 208.741 505.043C182.01 531.073 155.951 562.181 118.687 564.065C80.1916 566.013 44.7713 543.335 19.0379 514.638C-5.3227 487.472 -15.2915 451.477 -14.9935 414.989C-14.6983 378.843 -7.11789 340.093 20.6525 316.954C46.9922 295.007 84.7104 299.017 118.687 303.601Z" fill="#EE9B00"/>
</g>
<g filter="url(#filter3_f_95_159)">
<path fill-rule="evenodd" clip-rule="evenodd" d="M316.948 191.326C346.229 194.888 369.605 209.515 393.496 225.188C424.577 245.577 470.212 259.698 473.772 294.204C477.387 329.234 437.154 352.834 409.198 377.379C381.816 401.42 355.12 430.151 316.948 431.892C277.513 433.691 241.229 412.746 214.868 386.241C189.913 361.15 179.701 327.905 180.007 294.204C180.309 260.82 188.074 225.03 216.522 203.659C243.504 183.388 282.142 187.092 316.948 191.326Z" fill="#FFBA08"/>
</g>
<g filter="url(#filter4_f_95_159)">
<path fill-rule="evenodd" clip-rule="evenodd" d="M9.87564 -20.477C32.0852 -17.7752 49.8159 -6.68108 67.9375 5.20689C91.5125 20.6722 126.127 31.383 128.827 57.5563C131.569 84.1267 101.052 102.027 79.8478 120.644C59.0778 138.88 38.8293 160.673 9.87564 161.993C-20.0358 163.357 -47.5575 147.471 -67.5524 127.367C-86.4807 108.335 -94.2265 83.1181 -93.995 57.5563C-93.7656 32.234 -87.8756 5.0876 -66.2978 -11.1228C-45.8318 -26.498 -16.5246 -23.6886 9.87564 -20.477Z" fill="#FFBA08"/>
</g>
<g filter="url(#filter5_f_95_159)">
<path fill-rule="evenodd" clip-rule="evenodd" d="M135.911 59.3527C175.359 58.5629 225.024 39.7292 249.185 70.923C273.477 102.286 233.111 144.531 232.609 184.198C232.122 222.762 265.77 261.319 246.357 294.644C224.793 331.66 178.726 348.776 135.911 350.187C91.7981 351.64 48.5453 333.97 17.9385 302.17C-12.136 270.923 -25.5968 227.531 -23.8497 184.198C-22.1724 142.594 -5.72529 101.007 27.0824 75.3695C57.1171 51.8989 97.8006 60.1157 135.911 59.3527Z" fill="#C8B6FF"/>
</g>
<g filter="url(#filter6_f_95_159)">
<path fill-rule="evenodd" clip-rule="evenodd" d="M0.413651 575.121C50.8407 574.111 114.327 550.036 145.213 589.911C176.265 630.002 124.665 684.004 124.024 734.71C123.401 784.007 166.413 833.294 141.597 875.893C114.031 923.21 55.1451 945.09 0.413651 946.894C-55.9753 948.752 -111.265 926.164 -150.39 885.514C-188.834 845.57 -206.041 790.103 -203.808 734.71C-201.664 681.529 -180.639 628.368 -138.701 595.595C-100.308 565.592 -48.3023 576.096 0.413651 575.121Z" fill="#FFB6B6"/>
</g>
</g>
<defs>
<filter id="filter0_f_95_159" x="-114.9" y="232.1" width="679.8" height="704.8" filterUnits="userSpaceOnUse" color-interpolation-filters="sRGB">
<feFlood flood-opacity="0" result="BackgroundImageFix"/>
<feBlend mode="normal" in="SourceGraphic" in2="BackgroundImageFix" result="shape"/>
<feGaussianBlur stdDeviation="89.95" result="effect1_foregroundBlur_95_159"/>
</filter>
<filter id="filter1_f_95_159" x="-41.9" y="-259.9" width="679.8" height="704.8" filterUnits="userSpaceOnUse" color-interpolation-filters="sRGB">
<feFlood flood-opacity="0" result="BackgroundImageFix"/>
<feBlend mode="normal" in="SourceGraphic" in2="BackgroundImageFix" result="shape"/>
<feGaussianBlur stdDeviation="89.95" result="effect1_foregroundBlur_95_159"/>
</filter>
<filter id="filter2_f_95_159" x="-194.9" y="120.1" width="646.8" height="623.982" filterUnits="userSpaceOnUse" color-interpolation-filters="sRGB">
<feFlood flood-opacity="0" result="BackgroundImageFix"/>
<feBlend mode="normal" in="SourceGraphic" in2="BackgroundImageFix" result="shape"/>
<feGaussianBlur stdDeviation="89.95" result="effect1_foregroundBlur_95_159"/>
</filter>
<filter id="filter3_f_95_159" x="0.100006" y="8.10001" width="653.8" height="603.8" filterUnits="userSpaceOnUse" color-interpolation-filters="sRGB">
<feFlood flood-opacity="0" result="BackgroundImageFix"/>
<feBlend mode="normal" in="SourceGraphic" in2="BackgroundImageFix" result="shape"/>
<feGaussianBlur stdDeviation="89.95" result="effect1_foregroundBlur_95_159"/>
</filter>
<filter id="filter4_f_95_159" x="-230.455" y="-159.455" width="495.91" height="457.984" filterUnits="userSpaceOnUse" color-interpolation-filters="sRGB">
<feFlood flood-opacity="0" result="BackgroundImageFix"/>
<feBlend mode="normal" in="SourceGraphic" in2="BackgroundImageFix" result="shape"/>
<feGaussianBlur stdDeviation="68.2274" result="effect1_foregroundBlur_95_159"/>
</filter>
<filter id="filter5_f_95_159" x="-203.9" y="-126.9" width="640.757" height="657.07" filterUnits="userSpaceOnUse" color-interpolation-filters="sRGB">
<feFlood flood-opacity="0" result="BackgroundImageFix"/>
<feBlend mode="normal" in="SourceGraphic" in2="BackgroundImageFix" result="shape"/>
<feGaussianBlur stdDeviation="89.95" result="effect1_foregroundBlur_95_159"/>
</filter>
<filter id="filter6_f_95_159" x="-303.196" y="467.804" width="557.541" height="578.392" filterUnits="userSpaceOnUse" color-interpolation-filters="sRGB">
<feFlood flood-opacity="0" result="BackgroundImageFix"/>
<feBlend mode="normal" in="SourceGraphic" in2="BackgroundImageFix" result="shape"/>
<feGaussianBlur stdDeviation="49.598" result="effect1_foregroundBlur_95_159"/>
</filter>
<clipPath id="clip0_95_159">
<rect width="360" height="800" fill="white"/>
</clipPath>
</defs>
</svg>
