<svg width="14" height="15" viewBox="0 0 14 15" fill="none" xmlns="http://www.w3.org/2000/svg">
<path d="M11.8125 3.71875H9.625C9.625 2.97904 9.34844 2.26964 8.85616 1.74658C8.36387 1.22353 7.69619 0.929688 7 0.929688C6.30381 0.929688 5.63613 1.22353 5.14384 1.74658C4.65156 2.26964 4.375 2.97904 4.375 3.71875H2.1875C1.95544 3.71875 1.73288 3.8167 1.56878 3.99105C1.40469 4.1654 1.3125 4.40187 1.3125 4.64844V11.6211C1.3125 11.8677 1.40469 12.1041 1.56878 12.2785C1.73288 12.4528 1.95544 12.5508 2.1875 12.5508H11.8125C12.0446 12.5508 12.2671 12.4528 12.4312 12.2785C12.5953 12.1041 12.6875 11.8677 12.6875 11.6211V4.64844C12.6875 4.40187 12.5953 4.1654 12.4312 3.99105C12.2671 3.8167 12.0446 3.71875 11.8125 3.71875ZM7 1.85938C7.46413 1.85938 7.90925 2.05527 8.23744 2.40397C8.56563 2.75267 8.75 3.22561 8.75 3.71875H5.25C5.25 3.22561 5.43437 2.75267 5.76256 2.40397C6.09075 2.05527 6.53587 1.85938 7 1.85938ZM11.8125 11.6211H2.1875V4.64844H4.375V5.57812C4.375 5.70141 4.42109 5.81964 4.50314 5.90682C4.58519 5.99399 4.69647 6.04297 4.8125 6.04297C4.92853 6.04297 5.03981 5.99399 5.12186 5.90682C5.20391 5.81964 5.25 5.70141 5.25 5.57812V4.64844H8.75V5.57812C8.75 5.70141 8.79609 5.81964 8.87814 5.90682C8.96019 5.99399 9.07147 6.04297 9.1875 6.04297C9.30353 6.04297 9.41481 5.99399 9.49686 5.90682C9.57891 5.81964 9.625 5.70141 9.625 5.57812V4.64844H11.8125V11.6211Z" fill="#F4D8B1"/>
</svg>
