<svg width="16" height="15" viewBox="0 0 16 15" fill="none" xmlns="http://www.w3.org/2000/svg">
<g filter="url(#filter0_d_107_447)">
<path d="M12.6663 1.66659H11.333V0.999919C11.333 0.823108 11.2628 0.653538 11.1377 0.528514C11.0127 0.40349 10.8432 0.333252 10.6663 0.333252C10.4895 0.333252 10.32 0.40349 10.1949 0.528514C10.0699 0.653538 9.99967 0.823108 9.99967 0.999919V1.66659H5.99967V0.999919C5.99967 0.823108 5.92944 0.653538 5.80441 0.528514C5.67939 0.40349 5.50982 0.333252 5.33301 0.333252C5.1562 0.333252 4.98663 0.40349 4.8616 0.528514C4.73658 0.653538 4.66634 0.823108 4.66634 0.999919V1.66659H3.33301C2.80257 1.66659 2.29387 1.8773 1.91879 2.25237C1.54372 2.62744 1.33301 3.13615 1.33301 3.66658V11.6666C1.33301 12.197 1.54372 12.7057 1.91879 13.0808C2.29387 13.4559 2.80257 13.6666 3.33301 13.6666H12.6663C13.1968 13.6666 13.7055 13.4559 14.0806 13.0808C14.4556 12.7057 14.6663 12.197 14.6663 11.6666V3.66658C14.6663 3.13615 14.4556 2.62744 14.0806 2.25237C13.7055 1.8773 13.1968 1.66659 12.6663 1.66659ZM13.333 11.6666C13.333 11.8434 13.2628 12.013 13.1377 12.138C13.0127 12.263 12.8432 12.3333 12.6663 12.3333H3.33301C3.1562 12.3333 2.98663 12.263 2.8616 12.138C2.73658 12.013 2.66634 11.8434 2.66634 11.6666V6.99992H13.333V11.6666ZM13.333 5.66658H2.66634V3.66658C2.66634 3.48977 2.73658 3.3202 2.8616 3.19518C2.98663 3.07016 3.1562 2.99992 3.33301 2.99992H4.66634V3.66658C4.66634 3.8434 4.73658 4.01297 4.8616 4.13799C4.98663 4.26301 5.1562 4.33325 5.33301 4.33325C5.50982 4.33325 5.67939 4.26301 5.80441 4.13799C5.92944 4.01297 5.99967 3.8434 5.99967 3.66658V2.99992H9.99967V3.66658C9.99967 3.8434 10.0699 4.01297 10.1949 4.13799C10.32 4.26301 10.4895 4.33325 10.6663 4.33325C10.8432 4.33325 11.0127 4.26301 11.1377 4.13799C11.2628 4.01297 11.333 3.8434 11.333 3.66658V2.99992H12.6663C12.8432 2.99992 13.0127 3.07016 13.1377 3.19518C13.2628 3.3202 13.333 3.48977 13.333 3.66658V5.66658Z" fill="#9747FF"/>
</g>
<defs>
<filter id="filter0_d_107_447" x="-2.66699" y="0.333252" width="21.333" height="21.3333" filterUnits="userSpaceOnUse" color-interpolation-filters="sRGB">
<feFlood flood-opacity="0" result="BackgroundImageFix"/>
<feColorMatrix in="SourceAlpha" type="matrix" values="0 0 0 0 0 0 0 0 0 0 0 0 0 0 0 0 0 0 127 0" result="hardAlpha"/>
<feOffset dy="4"/>
<feGaussianBlur stdDeviation="2"/>
<feComposite in2="hardAlpha" operator="out"/>
<feColorMatrix type="matrix" values="0 0 0 0 0 0 0 0 0 0 0 0 0 0 0 0 0 0 0.25 0"/>
<feBlend mode="normal" in2="BackgroundImageFix" result="effect1_dropShadow_107_447"/>
<feBlend mode="normal" in="SourceGraphic" in2="effect1_dropShadow_107_447" result="shape"/>
</filter>
</defs>
</svg>
