<svg width="16" height="11" viewBox="0 0 16 11" fill="none" xmlns="http://www.w3.org/2000/svg">
<path d="M14.6021 4.03846H13.9224L12.1739 0.532853C12.0948 0.374246 11.9657 0.239492 11.8024 0.144916C11.6391 0.0503403 11.4485 2.07767e-06 11.2537 0H3.85194C3.65716 2.07767e-06 3.46657 0.0503403 3.30324 0.144916C3.13992 0.239492 3.01088 0.374246 2.93175 0.532853L1.18327 4.03846H0.503521C0.369979 4.03846 0.241906 4.08574 0.147478 4.16989C0.0530494 4.25404 0 4.36817 0 4.48718C0 4.60619 0.0530494 4.72032 0.147478 4.80447C0.241906 4.88862 0.369979 4.9359 0.503521 4.9359H1.00704V9.42308C1.00704 9.66109 1.11314 9.88936 1.302 10.0577C1.49086 10.226 1.747 10.3205 2.01408 10.3205H3.52465C3.79173 10.3205 4.04788 10.226 4.23673 10.0577C4.42559 9.88936 4.53169 9.66109 4.53169 9.42308V8.52564H10.5739V9.42308C10.5739 9.66109 10.68 9.88936 10.8689 10.0577C11.0578 10.226 11.3139 10.3205 11.581 10.3205H13.0915C13.3586 10.3205 13.6148 10.226 13.8036 10.0577C13.9925 9.88936 14.0986 9.66109 14.0986 9.42308V4.9359H14.6021C14.7357 4.9359 14.8637 4.88862 14.9582 4.80447C15.0526 4.72032 15.1056 4.60619 15.1056 4.48718C15.1056 4.36817 15.0526 4.25404 14.9582 4.16989C14.8637 4.08574 14.7357 4.03846 14.6021 4.03846ZM3.85194 0.897436H11.2537L12.8203 4.03846H2.28536L3.85194 0.897436ZM3.52465 9.42308H2.01408V8.52564H3.52465V9.42308ZM11.581 9.42308V8.52564H13.0915V9.42308H11.581ZM13.0915 7.62821H2.01408V4.9359H13.0915V7.62821ZM3.02113 6.28205C3.02113 6.16304 3.07418 6.04891 3.1686 5.96476C3.26303 5.88061 3.39111 5.83333 3.52465 5.83333H4.53169C4.66523 5.83333 4.7933 5.88061 4.88773 5.96476C4.98216 6.04891 5.03521 6.16304 5.03521 6.28205C5.03521 6.40106 4.98216 6.51519 4.88773 6.59934C4.7933 6.68349 4.66523 6.73077 4.53169 6.73077H3.52465C3.39111 6.73077 3.26303 6.68349 3.1686 6.59934C3.07418 6.51519 3.02113 6.40106 3.02113 6.28205ZM10.0704 6.28205C10.0704 6.16304 10.1235 6.04891 10.2179 5.96476C10.3123 5.88061 10.4404 5.83333 10.5739 5.83333H11.581C11.7145 5.83333 11.8426 5.88061 11.937 5.96476C12.0315 6.04891 12.0845 6.16304 12.0845 6.28205C12.0845 6.40106 12.0315 6.51519 11.937 6.59934C11.8426 6.68349 11.7145 6.73077 11.581 6.73077H10.5739C10.4404 6.73077 10.3123 6.68349 10.2179 6.59934C10.1235 6.51519 10.0704 6.40106 10.0704 6.28205Z" fill="#CFF3E9"/>
</svg>
