<svg width="18" height="18" viewBox="0 0 18 18" fill="none" xmlns="http://www.w3.org/2000/svg">
<path d="M14.2092 4.70925L13.6932 4.19325L14.0532 3.81375C14.1497 3.71725 14.198 3.609 14.198 3.489C14.198 3.369 14.1497 3.26075 14.0532 3.16425L12.173 1.284C12.0765 1.1875 11.9683 1.13925 11.8483 1.13925C11.7283 1.13925 11.62 1.1875 11.5235 1.284L11.144 1.644L10.6093 1.10925L11.0278 0.672C11.2477 0.452 11.5175 0.345 11.837 0.351C12.156 0.3575 12.4255 0.47075 12.6455 0.69075L14.6465 2.69175C14.8665 2.91175 14.9765 3.17825 14.9765 3.49125C14.9765 3.80425 14.8665 4.07075 14.6465 4.29075L14.2092 4.70925ZM6.29075 12.6465C6.07075 12.8665 5.80425 12.9765 5.49125 12.9765C5.17825 12.9765 4.91175 12.8665 4.69175 12.6465L2.74925 10.704C2.51925 10.474 2.40425 10.188 2.40425 9.846C2.40425 9.504 2.51925 9.21825 2.74925 8.98875L3.10925 8.628L3.644 9.16275L3.2795 9.5235C3.1835 9.62 3.1355 9.72825 3.1355 9.84825C3.1355 9.96825 3.1835 10.0765 3.2795 10.173L5.16425 12.0577C5.26075 12.1537 5.369 12.2017 5.489 12.2017C5.609 12.2017 5.71725 12.1537 5.81375 12.0577L6.17375 11.6933L6.70925 12.228L6.29075 12.6465ZM13.5905 7.5435L14.4432 6.69075C14.5392 6.59475 14.5872 6.48425 14.5872 6.35925C14.5872 6.23425 14.5392 6.12375 14.4432 6.02775L9.3095 0.894C9.2135 0.798 9.103 0.75 8.978 0.75C8.853 0.75 8.7425 0.798 8.6465 0.894L7.79375 1.74675C7.69775 1.84275 7.64975 1.951 7.64975 2.0715C7.64975 2.1915 7.69775 2.2995 7.79375 2.3955L12.9417 7.5435C13.0377 7.6395 13.1458 7.6875 13.2657 7.6875C13.3857 7.6875 13.494 7.6395 13.5905 7.5435ZM8.672 12.462L9.52475 11.6048C9.62075 11.5087 9.66875 11.4007 9.66875 11.2807C9.66875 11.1607 9.62075 11.0525 9.52475 10.956L4.38125 5.8125C4.28525 5.7165 4.177 5.6685 4.0565 5.6685C3.9365 5.6685 3.8285 5.7165 3.7325 5.8125L2.87525 6.66525C2.77925 6.76125 2.73125 6.87175 2.73125 6.99675C2.73125 7.12175 2.77925 7.23225 2.87525 7.32825L8.009 12.462C8.105 12.558 8.2155 12.606 8.3405 12.606C8.4655 12.606 8.576 12.558 8.672 12.462ZM8.14175 8.5065L10.4923 6.1605L9.17675 4.845L6.83075 7.1955L8.14175 8.5065ZM9.19325 12.9923C8.96325 13.2222 8.679 13.3372 8.3405 13.3372C8.002 13.3372 7.71775 13.2222 7.48775 12.9923L2.345 7.8495C2.115 7.6195 2 7.33525 2 6.99675C2 6.65825 2.115 6.374 2.345 6.144L3.197 5.27775C3.427 5.04775 3.713 4.93275 4.055 4.93275C4.397 4.93275 4.68275 5.04775 4.91225 5.27775L6.29525 6.66075L8.6465 4.3095L7.26275 2.931C7.03275 2.701 6.91775 2.4145 6.91775 2.0715C6.91775 1.728 7.03275 1.4415 7.26275 1.212L8.12975 0.345C8.35975 0.115 8.64575 0 8.98775 0C9.32975 0 9.6155 0.115 9.845 0.345L14.9923 5.49225C15.2222 5.72225 15.3372 6.00825 15.3372 6.35025C15.3372 6.69225 15.2222 6.978 14.9923 7.2075L14.1252 8.0745C13.8953 8.3045 13.6088 8.4195 13.2657 8.4195C12.9227 8.4195 12.6362 8.3045 12.4062 8.0745L11.0278 6.69075L8.6765 9.042L10.0595 10.425C10.2895 10.655 10.4045 10.9408 10.4045 11.2823C10.4045 11.6237 10.2895 11.9097 10.0595 12.1403L9.19325 12.9923Z" fill="#9D4EDD"/>
</svg>
