<svg width="13" height="13" viewBox="0 0 13 13" fill="none" xmlns="http://www.w3.org/2000/svg">
<g clip-path="url(#clip0_126_1171)">
<path fill-rule="evenodd" clip-rule="evenodd" d="M7.71875 11.7813L2.84375 9.75009V3.25009L7.71875 1.21884V11.7813ZM2.12469 10.7706C1.97669 10.7089 1.85027 10.6047 1.76135 10.4712C1.67243 10.3378 1.62499 10.181 1.625 10.0207V2.97953C1.62499 2.81917 1.67243 2.66239 1.76135 2.52894C1.85027 2.39549 1.97669 2.29133 2.12469 2.22959L7.24994 0.0935322C7.43517 0.0163393 7.6366 -0.0139196 7.83634 0.0054421C8.03608 0.0248038 8.22794 0.0931871 8.3949 0.20452C8.56186 0.315853 8.69875 0.46669 8.7934 0.643638C8.88806 0.820586 8.93756 1.01817 8.9375 1.21884V1.62509H9.95312C10.738 1.62509 11.375 2.26128 11.375 3.04697V9.95322C11.375 10.3303 11.2252 10.692 10.9585 10.9586C10.6919 11.2253 10.3302 11.3751 9.95312 11.3751H8.9375V11.7813C8.93756 11.982 8.88806 12.1796 8.7934 12.3566C8.69875 12.5335 8.56186 12.6843 8.3949 12.7957C8.22794 12.907 8.03608 12.9754 7.83634 12.9947C7.6366 13.0141 7.43517 12.9839 7.24994 12.9067L2.12469 10.7706ZM8.9375 10.1563H9.95312C10.007 10.1563 10.0587 10.1349 10.0968 10.0969C10.1348 10.0588 10.1562 10.0071 10.1562 9.95322V3.04697C10.1562 2.9931 10.1348 2.94143 10.0968 2.90334C10.0587 2.86525 10.007 2.84384 9.95312 2.84384H8.9375V10.1563Z" fill="#B4C4FF"/>
</g>
<defs>
<clipPath id="clip0_126_1171">
<rect width="13" height="13" fill="white"/>
</clipPath>
</defs>
</svg>
